<?xml version="1.0" encoding="UTF-8" standalone="no"?>
<!-- Created with Inkscape (http://www.inkscape.org/) -->

<svg
   xmlns:dc="http://purl.org/dc/elements/1.1/"
   xmlns:cc="http://creativecommons.org/ns#"
   xmlns:rdf="http://www.w3.org/1999/02/22-rdf-syntax-ns#"
   xmlns:svg="http://www.w3.org/2000/svg"
   xmlns="http://www.w3.org/2000/svg"
   xmlns:xlink="http://www.w3.org/1999/xlink"
   xmlns:sodipodi="http://sodipodi.sourceforge.net/DTD/sodipodi-0.dtd"
   xmlns:inkscape="http://www.inkscape.org/namespaces/inkscape"
   width="1200"
   height="400"
   viewBox="0 0 317.50001 105.83333"
   version="1.1"
   id="svg8"
   inkscape:version="0.92.1 r15371"
   sodipodi:docname="idm-montage.svg"
   inkscape:export-filename="/home/mitya/NetBeansProjects/adapt-to-2018-keycloak-sling-presentation/presentation/img/idm-montage.png"
   inkscape:export-xdpi="96"
   inkscape:export-ydpi="96">
  <defs
     id="defs2" />
  <sodipodi:namedview
     id="base"
     pagecolor="#ffffff"
     bordercolor="#666666"
     borderopacity="1.0"
     inkscape:pageopacity="0.0"
     inkscape:pageshadow="2"
     inkscape:zoom="0.56410985"
     inkscape:cx="258.76445"
     inkscape:cy="202.11752"
     inkscape:document-units="mm"
     inkscape:current-layer="layer1"
     showgrid="false"
     inkscape:snap-global="false"
     units="px"
     inkscape:window-width="1920"
     inkscape:window-height="1025"
     inkscape:window-x="0"
     inkscape:window-y="27"
     inkscape:window-maximized="1" />
  <metadata
     id="metadata5">
    <rdf:RDF>
      <cc:Work
         rdf:about="">
        <dc:format>image/svg+xml</dc:format>
        <dc:type
           rdf:resource="http://purl.org/dc/dcmitype/StillImage" />
        <dc:title></dc:title>
      </cc:Work>
    </rdf:RDF>
  </metadata>
  <g
     inkscape:label="Layer 1"
     inkscape:groupmode="layer"
     id="layer1"
     transform="translate(0,-191.16668)">
    <image
       sodipodi:absref="/home/mitya/NetBeansProjects/adapt-to-2018-keycloak-sling-presentation/presentation/img/auth0.png"
       xlink:href="auth0.png"
       width="111.15483"
       height="40.267406"
       preserveAspectRatio="none"
       id="image4563"
       x="188.81816"
       y="249.76842" />
    <image
       sodipodi:absref="/home/mitya/NetBeansProjects/adapt-to-2018-keycloak-sling-presentation/presentation/img/azure.png"
       xlink:href="azure.png"
       width="95.647995"
       height="50.215199"
       preserveAspectRatio="none"
       id="image4574"
       x="129.67239"
       y="194.58456" />
    <image
       sodipodi:absref="/home/mitya/NetBeansProjects/adapt-to-2018-keycloak-sling-presentation/presentation/img/keycloak.png"
       xlink:href="keycloak.png"
       width="166.57428"
       height="48.028915"
       preserveAspectRatio="none"
       id="image4585"
       x="11.345972"
       y="245.88765" />
    <g
       id="g4604"
       transform="matrix(0.21122324,0,0,0.21122324,216.34406,202.40161)">
      <g
         id="g4598">
        <g
           id="g4592">
          <path
             id="path4590"
             d="M 50.3,33.8 C 22.5,33.8 0,56.3 0,84.1 c 0,27.8 22.5,50.3 50.3,50.3 27.8,0 50.3,-22.5 50.3,-50.3 0,-27.8 -22.5,-50.3 -50.3,-50.3 z m 0,75.5 C 36.4,109.3 25.1,98 25.1,84.1 c 0,-13.9 11.3,-25.2 25.2,-25.2 13.9,0 25.2,11.3 25.2,25.2 0,13.9 -11.3,25.2 -25.2,25.2 z"
             class="st0"
             inkscape:connector-curvature="0"
             style="fill:#007dc1" />
        </g>
        <path
           id="path4594"
           d="m 138.7,101 c 0,-4 4.8,-5.9 7.6,-3.1 12.6,12.8 33.4,34.8 33.5,34.9 0.3,0.3 0.6,0.8 1.8,1.2 0.5,0.2 1.3,0.2 2.2,0.2 h 22.7 c 4.1,0 5.3,-4.7 3.4,-7.1 l -37.6,-38.5 -2,-2 c -4.3,-5.1 -3.8,-7.1 1.1,-12.3 L 201.2,41 c 1.9,-2.4 0.7,-7 -3.5,-7 h -20.6 c -0.8,0 -1.4,0 -2,0.2 -1.2,0.4 -1.7,0.8 -2,1.2 -0.1,0.1 -16.6,17.9 -26.8,28.8 -2.8,3 -7.8,1 -7.8,-3.1 V 4 c 0,-2.9 -2.4,-4 -4.3,-4 h -16.8 c -2.9,0 -4.3,1.9 -4.3,3.6 v 126.6 c 0,2.9 2.4,3.7 4.4,3.7 h 16.8 c 2.6,0 4.3,-1.9 4.3,-3.8 V 128.8 101 Z"
           class="st0"
           inkscape:connector-curvature="0"
           style="fill:#007dc1" />
        <path
           id="path4596"
           d="m 275.9,129.6 -1.8,-16.8 c -0.2,-2.3 -2.4,-3.9 -4.7,-3.5 -1.3,0.2 -2.6,0.3 -3.9,0.3 -13.4,0 -24.3,-10.5 -25.1,-23.8 0,-0.4 0,-0.9 0,-1.4 V 63.8 c 0,-2.7 2,-4.9 4.7,-4.9 h 22.5 c 1.6,0 4,-1.4 4,-4.3 V 38.7 c 0,-3.1 -2,-4.7 -3.8,-4.7 h -22.7 c -2.6,0 -4.7,-1.9 -4.8,-4.5 V 4 c 0,-1.6 -1.2,-4 -4.3,-4 h -16.7 c -2.1,0 -4.1,1.3 -4.1,3.9 0,0 0,81.5 0,81.9 0.7,27.2 23,48.9 50.3,48.9 2.3,0 4.5,-0.2 6.7,-0.5 2.4,-0.3 4,-2.3 3.7,-4.6 z"
           class="st0"
           inkscape:connector-curvature="0"
           style="fill:#007dc1" />
      </g>
      <g
         id="g4602">
        <path
           id="path4600"
           d="m 397.1,108.5 c -14.2,0 -16.4,-5.1 -16.4,-24.2 0,-0.1 0,-0.1 0,-0.2 V 38.2 c 0,-1.6 -1.2,-4.3 -4.4,-4.3 h -16.8 c -2.1,0 -4.4,1.7 -4.4,4.3 v 2.1 c -7.3,-4.2 -15.8,-6.6 -24.8,-6.6 -27.8,0 -50.3,22.5 -50.3,50.3 0,27.8 22.5,50.3 50.3,50.3 12.5,0 23.9,-4.6 32.7,-12.1 4.7,7.2 12.3,12 24.2,12.1 2,0 12.8,0.4 12.8,-4.7 v -17.9 c 0,-1.5 -1.2,-3.2 -2.9,-3.2 z m -66.7,0.8 c -13.9,0 -25.2,-11.3 -25.2,-25.2 0,-13.9 11.3,-25.2 25.2,-25.2 13.9,0 25.2,11.3 25.2,25.2 -0.1,13.9 -11.4,25.2 -25.2,25.2 z"
           class="st0"
           inkscape:connector-curvature="0"
           style="fill:#007dc1" />
      </g>
    </g>
    <g
       id="Symbols"
       transform="matrix(0.90370149,0,0,0.90370149,38.345612,172.28995)">
      <g
         id="Ping-Logo">
        <g
           id="PIC_x5F_square_x5F_logo_x5F_PIC_x5F_red_x5F_RGB-_x28_1_x29_">
          <polygon
             points="-24,76 26,76 26,26 -24,26 "
             class="st0"
             id="Fill-1"
             style="fill:#b8232f" />
          <path
             d="M 0,66 0.7,65.9 V 71 H 0 Z m 2.9,0.6 v 3.3 c 0,0.6 0.1,0.8 0.6,0.8 0.2,0 0.1,0 0.3,-0.1 L 3.9,71 C 3.7,71.1 3.6,71.2 3.3,71.2 3.1,71.2 2.9,71.1 2.7,71.1 2.4,70.9 2.3,70.6 2.3,70.1 V 66.6 H 1.6 V 66 H 2.2 V 64.1 H 2.9 V 66 H 4 L 3.8,66.6 Z M 4.5,52.4 c -0.6,0 -1.4,0.4 -2.1,1.1 v 8.9 h -3 v -9.2 c 0,-1.1 -0.1,-2.1 -0.4,-3 L 1.7,49.4 C 2,49.9 2.1,50.5 2.1,51 2.6,50.7 2.9,50.4 3.4,50.1 4,49.8 4.8,49.6 5.5,49.6 c 1.3,0 2.4,0.7 2.8,1.8 0.2,0.5 0.2,1 0.2,1.8 v 9.2 h -3 v -8.2 c 0,-1.4 -0.2,-1.8 -1,-1.8 z m 8.6,1.5 c 0,-1.2 0.7,-1.9 1.8,-1.9 1.2,0 1.8,0.7 1.8,1.9 0,1.2 -0.7,1.8 -1.9,1.8 -0.9,0 -1.7,-0.5 -1.7,-1.8 z m 3,5.3 h -1.6 c -0.3,0 -0.5,-0.1 -0.5,-0.3 0,-0.3 0.4,-0.6 1.2,-1 0.2,0 0.3,0 0.5,0 2.5,0 4.3,-1.6 4.3,-3.8 0,-0.8 -0.2,-1.5 -0.7,-2.1 0.2,0 0.5,0.1 0.8,0.1 0.8,0 1.5,-0.3 2.1,-0.9 l -1.3,-2.1 c -0.7,0.7 -1.6,1.1 -2.4,1.1 -0.4,0 -0.8,-0.1 -1.4,-0.3 -0.8,-0.2 -1.4,-0.3 -2.1,-0.3 -3,0 -4.9,1.7 -4.9,4.3 0,1.9 0.8,3 2.5,3.5 -1.9,0.5 -2.1,1.3 -2.1,2.1 0,0.9 0.3,1.4 0.9,1.7 0.5,0.2 1.4,0.4 2.8,0.4 h 1.3 c 1.2,0 2.1,0.4 2.1,1.5 0,0.5 -0.3,1 -0.7,1.3 -0.5,0.3 -1.1,0.4 -1.9,0.4 -1.4,0 -2.2,-0.5 -2.2,-1.6 0,-0.3 0,-0.5 0.1,-0.8 H 10 c -0.1,0.2 -0.3,0.6 -0.3,1.3 0,0.9 0.3,1.6 1,2.2 1,1.1 2.7,1.4 4.4,1.4 1.8,0 3.6,-0.4 4.6,-1.6 0.6,-0.7 0.9,-1.6 0.9,-2.6 0,-1.1 -0.3,-2 -1,-2.7 -0.8,-0.9 -1.7,-1.2 -3.5,-1.2 z M 8.8,70.9 c -0.3,0 -0.5,-0.2 -0.5,-0.6 0,-0.3 0.2,-0.6 0.5,-0.6 0.3,0 0.5,0.2 0.5,0.6 0,0.3 -0.3,0.6 -0.5,0.6 z m 0,-1.4 c -0.4,0 -0.7,0.3 -0.7,0.7 0,0.4 0.3,0.7 0.7,0.7 0.4,0 0.7,-0.3 0.7,-0.7 C 9.4,69.9 9.1,69.5 8.8,69.5 Z M 8.6,70.2 V 70 h 0.1 c 0.1,0 0.2,0 0.2,0.1 0,0.1 -0.1,0.1 -0.2,0.1 H 8.6 Z M 9.1,70.1 C 9.1,69.9 9,69.9 8.8,69.9 H 8.5 v 0.8 h 0.1 v -0.4 h 0.1 l 0.2,0.4 H 9 L 8.8,70.3 c 0.2,0 0.3,0 0.3,-0.2 z M 8.5,66 6.9,71.2 c -0.3,1 -0.7,1.7 -1.5,1.9 L 5.2,72.6 C 5.6,72.4 5.9,72.2 6.1,71.7 6,71.2 6,71.1 6,71.1 5.9,70.8 5.7,69.8 5.5,69.3 l -1,-3.2 0.7,-0.3 0.9,3.3 c 0.1,0.5 0.3,1.3 0.3,1.3 v 0 c 0,0 0.2,-0.6 0.3,-1.1 L 7.6,66 Z m -22,3.7 c 0,0 -0.1,0.2 -0.3,0.4 -0.3,0.2 -0.5,0.3 -0.9,0.3 -0.4,0 -0.7,-0.2 -0.9,-0.6 -0.1,-0.3 -0.2,-0.7 -0.2,-1.3 0,-0.7 0.1,-1.1 0.3,-1.5 0.2,-0.3 0.5,-0.5 0.8,-0.5 0.5,0 0.9,0.2 1.1,0.5 v 2.7 z m 0.7,-5.6 h -0.7 v 1.7 c 0,0.4 0,0.8 0,0.8 -0.3,-0.4 -0.7,-0.6 -1.2,-0.6 -0.3,0 -0.6,0.1 -0.9,0.3 -0.6,0.5 -0.9,1.3 -0.9,2.3 0,1.6 0.7,2.6 1.8,2.6 0.5,0 0.9,-0.2 1.2,-0.6 0,0.3 0.1,0.5 0.1,0.5 h 0.7 c -0.1,-0.3 -0.1,-0.8 -0.1,-1.6 z M -1.9,66 h 1.2 L -1,66.6 h -1 v 3.3 c 0,0.6 0.1,0.8 0.6,0.8 0.2,0 0.1,0 0.3,-0.1 L -1,71 c -0.2,0.1 -0.3,0.2 -0.6,0.2 -0.2,0 -0.4,-0.1 -0.6,-0.1 -0.3,-0.2 -0.4,-0.5 -0.4,-1 V 66.6 H -3.2 V 66 h 0.6 v -1.9 h 0.7 V 66 Z m -4.3,-16 3,-0.5 v 12.9 h -3 z m -0.3,-3.7 c 0,-1.1 0.9,-2 1.9,-2 1,0 1.8,0.9 1.8,2 0,1.1 -0.8,2.1 -1.9,2.1 -1,0 -1.8,-0.9 -1.8,-2.1 z M -4,66.6 c 0.1,0.2 0.1,0.4 0.1,0.6 V 71 h -0.7 v -3.4 c 0,-0.5 0,-0.7 -0.2,-0.8 -0.1,-0.1 -0.3,-0.2 -0.5,-0.2 -0.4,0 -0.9,0.3 -1.3,0.7 V 71 H -7.3 V 67.1 C -7.3,66.4 -7.5,66 -7.5,66 l 0.7,-0.2 c 0,0 0.2,0.4 0.2,0.8 0.5,-0.5 0.9,-0.8 1.4,-0.8 0.6,0.1 1,0.4 1.2,0.8 z m -7,1.4 c 0,-1 0.4,-1.6 1,-1.6 0.3,0 0.7,0.2 0.8,0.4 0.2,0.4 0.2,0.7 0.3,1.2 z m 1.1,-2.2 c -0.5,0 -1,0.2 -1.4,0.7 -0.4,0.5 -0.5,1.1 -0.5,1.9 0,1.7 0.8,2.7 2,2.7 0.6,0 1.1,-0.2 1.5,-0.6 L -8.6,70 c -0.3,0.3 -0.7,0.5 -1.1,0.5 -0.5,0 -0.9,-0.2 -1.1,-0.6 C -11,69.6 -11,69.3 -11,68.8 v -0.1 h 2.8 v -0.1 c 0,-1.2 -0.1,-1.7 -0.5,-2.1 C -9,66 -9.4,65.8 -9.9,65.8 Z m -8.3,5.2 h 0.7 v -7 h -0.7 z m 6.9,-18.6 c -0.4,0.7 -0.8,0.9 -2.1,0.9 h -1.7 v -5.2 h 2 c 1.3,0 2.1,1 2.1,2.6 0.1,0.8 0,1.3 -0.3,1.7 z m 1.6,-6.3 c -0.9,-0.5 -1.7,-0.8 -4.4,-0.8 h -4.1 v 17.2 h 3.2 v -6.3 h 1.7 c 1.7,0 2.4,-0.2 3.1,-0.6 1.7,-0.9 2.7,-2.7 2.7,-5 0.1,-2 -0.7,-3.6 -2.2,-4.5 z"
             class="st1"
             id="Fill-3"
             inkscape:connector-curvature="0"
             style="fill:#ffffff" />
        </g>
      </g>
    </g>
    <image
       sodipodi:absref="/home/mitya/NetBeansProjects/adapt-to-2018-keycloak-sling-presentation/presentation/img/wso2.png"
       xlink:href="wso2.png"
       width="74.092995"
       height="33.341846"
       preserveAspectRatio="none"
       id="image4654"
       x="68.933899"
       y="203.45905" />
  </g>
  <style
     id="style4588"
     type="text/css">
	.st0{fill:#007DC1;}
</style>
  <style
     id="style4622"
     type="text/css">
	.st0{fill:#b8232f;}
	.st1{fill:#FFFFFF;}
</style>
</svg>
