<?xml version="1.0" encoding="UTF-8" standalone="no"?>
<svg
   xmlns:dc="http://purl.org/dc/elements/1.1/"
   xmlns:cc="http://creativecommons.org/ns#"
   xmlns:rdf="http://www.w3.org/1999/02/22-rdf-syntax-ns#"
   xmlns:svg="http://www.w3.org/2000/svg"
   xmlns="http://www.w3.org/2000/svg"
   xmlns:sodipodi="http://sodipodi.sourceforge.net/DTD/sodipodi-0.dtd"
   xmlns:inkscape="http://www.inkscape.org/namespaces/inkscape"
   version="1.1"
   id="Layer_1"
   x="0px"
   y="0px"
   viewBox="0 0 256 256"
   style="enable-background:new 0 0 256 256;"
   xml:space="preserve"
   sodipodi:docname="adapt-to.svg"
   inkscape:version="0.92.1 r15371"><metadata
     id="metadata16"><rdf:RDF><cc:Work
         rdf:about=""><dc:format>image/svg+xml</dc:format><dc:type
           rdf:resource="http://purl.org/dc/dcmitype/StillImage" /><dc:title></dc:title></cc:Work></rdf:RDF></metadata><defs
     id="defs14" /><sodipodi:namedview
     pagecolor="#ffffff"
     bordercolor="#666666"
     borderopacity="1"
     objecttolerance="10"
     gridtolerance="10"
     guidetolerance="10"
     inkscape:pageopacity="0"
     inkscape:pageshadow="2"
     inkscape:window-width="1360"
     inkscape:window-height="704"
     id="namedview12"
     showgrid="false"
     inkscape:zoom="0.921875"
     inkscape:cx="128"
     inkscape:cy="128"
     inkscape:window-x="0"
     inkscape:window-y="27"
     inkscape:window-maximized="1"
     inkscape:current-layer="Layer_1" /><style
     type="text/css"
     id="style2">
	#background{fill:#343433;}
	.white{fill:#FFFFFF;}
	#blue-dots{fill:#2BACE2;}
</style><g
     id="g4503"><rect
       id="background"
       width="256"
       height="256"
       x="0"
       y="0"
       style="fill:#222222;fill-opacity:1" /><g
       id="logo"><path
         id="logo-type"
         class="white"
         d="m 23.5,218.7 c -0.4,0.2 -0.6,0.9 -0.6,1.2 v 4 c 0,0.3 0.1,0.5 0.3,0.5 h 5 c 0.2,0 0.3,-0.2 0.3,-0.5 v -6.2 z m 4.9,-9.8 c 0,-0.5 -0.2,-0.7 -0.5,-0.7 H 17.6 c -1.1,0 -2,-0.7 -2,-1.6 v -4.2 c 0,-0.7 0.9,-1.6 2,-1.6 h 12.9 c 3.4,0 6.9,2 6.9,6.5 V 226 c 0,3.5 -2.2,5.8 -6.1,5.8 H 20.2 c -3,0 -6.2,-1.7 -6.2,-5.7 v -5.6 c 0,-2.2 0,-5.6 4.6,-6.9 l 9.5,-2.1 c 0.1,-0.1 0.3,-0.3 0.3,-0.8 z m 24,14.8 c 0,0.3 0.2,0.7 0.4,0.7 h 5.6 c 0.2,0 0.3,-0.4 0.3,-0.7 v -15.6 h -5.9 c -0.2,0 -0.4,0.4 -0.4,0.7 z m 15.5,4 c 0,2.4 -1.6,4.1 -4.4,4.1 H 51.1 c -4.2,0 -7.7,-3.3 -7.7,-7.4 V 208 c 0,-3.7 2.8,-7.4 7.6,-7.4 h 7.9 v -9.2 c 0,-0.9 0.8,-1.8 2,-1.8 h 5 c 1,0 2,0.7 2,1.8 z m 15.8,-9 c -0.4,0.2 -0.6,0.9 -0.6,1.2 v 4 c 0,0.3 0.1,0.5 0.3,0.5 h 5 c 0.2,0 0.3,-0.2 0.3,-0.5 v -6.2 z m 4.8,-9.8 c 0,-0.5 -0.2,-0.7 -0.5,-0.7 H 77.8 c -1.1,0 -2,-0.7 -2,-1.6 v -4.2 c 0,-0.7 0.9,-1.6 2,-1.6 h 12.9 c 3.4,0 6.9,2 6.9,6.5 V 226 c 0,3.5 -2.2,5.8 -6.1,5.8 H 80.4 c -3,0 -6.2,-1.7 -6.2,-5.7 v -5.6 c 0,-2.2 0,-5.6 4.6,-6.9 l 9.5,-2.1 c 0.1,-0.1 0.3,-0.3 0.3,-0.8 v -1.8 z m 25,15.5 h 6 c 0.2,0 0.3,-0.3 0.3,-0.6 v -14.9 c 0,-0.4 -0.2,-0.7 -0.4,-0.7 h -5.7 c -0.2,0 -0.3,0.3 -0.3,0.6 v 15.6 z m -9.1,-19.9 c 0,-2.3 1.5,-3.9 4.1,-3.9 h 12.7 c 4.2,0 7.7,3.3 7.7,7.4 v 16.4 c 0,3.7 -2.8,7.4 -7.6,7.4 h -7.9 v 9.3 c 0,0.9 -0.7,1.8 -2,1.8 h -5 c -1,0 -2.1,-0.7 -2.1,-1.8 v -36.6 z m 43.8,18.5 c 1.2,0 2,0.8 2,1.8 v 4.3 c 0,1.1 -1,1.8 -2,1.8 h -8.8 c -2.6,0 -5.4,-2 -5.4,-5.2 v -33.5 c 0,-0.7 0.7,-1.6 1.7,-2 l 4.7,-1.4 h -0.1 c 2.8,-1.2 2.8,0.8 2.8,1.9 v 9.5 h 4.5 c 1.2,0 2,0.9 2,1.8 v 4 c 0,1 -1,1.8 -2,1.8 h -4.5 v 14.7 c 0,0.5 0.2,0.7 0.4,0.7 h 4.7 z m 25.5,-25.6 V 230 c 0,1.1 -1.1,1.8 -2.2,1.8 h -5.1 c -1.3,0 -2.2,-0.9 -2.2,-1.8 v -32.6 h -9.4 c -1.2,0 -2,-0.9 -2,-1.8 v -4 c 0,-1.1 1.1,-1.9 2,-1.9 H 183 c 1,0 2.1,0.7 2.1,1.9 v 4 c 0,0.9 -0.8,1.8 -2.1,1.8 z m 29.1,11.4 c 0,-0.3 -0.2,-0.7 -0.7,-0.7 h -4.9 c -0.4,0 -0.6,0.4 -0.6,0.7 v 14.9 c 0,0.3 0.2,0.7 0.6,0.7 h 4.9 c 0.5,0 0.7,-0.4 0.7,-0.7 z m 9.1,15.6 c 0,3.7 -2.5,7.4 -7.5,7.4 h -9.3 c -5.2,0 -7.6,-3.7 -7.6,-7.4 V 208 c 0,-4.1 3.5,-7.4 7.7,-7.4 h 8.9 c 3.7,0 7.8,3.6 7.8,7.4 z m 21.8,18.5 h -3.2 c -1.5,0 -2,-0.2 -2.9,-1.3 -4.7,-5.7 -8,-15.8 -8,-24.9 v -0.6 c 0,-9 3.5,-19.4 8.2,-25.1 1,-1.1 1.5,-1.2 3,-1.2 h 3.1 c 1.4,0 2,0.8 2,1.7 0,0.2 -0.1,0.7 -0.3,1.1 -2.8,4.1 -6.8,15.5 -6.8,23.6 v 0.6 c 0,8.2 4,19.1 6.7,23.3 0.1,0.3 0.4,0.9 0.4,1.1 -0.2,0.9 -0.9,1.7 -2.2,1.7 m 4.6,-2.8 c 2.8,-4.2 6.7,-15.2 6.7,-23.3 v -0.6 c 0,-8.2 -4.1,-19.5 -6.8,-23.6 -0.2,-0.3 -0.3,-0.9 -0.3,-1.1 0,-0.9 0.6,-1.7 2,-1.7 h 3.1 c 1.5,0 2,0.1 3,1.2 4.6,5.8 8.2,16.1 8.2,25.1 v 0.6 c 0,9.1 -3.3,19.1 -8,24.9 -0.8,1.1 -1.4,1.3 -2.9,1.3 h -3.2 c -1.4,0 -2,-0.8 -2,-1.7 -0.2,-0.2 0,-0.8 0.2,-1.1"
         inkscape:connector-curvature="0"
         style="fill:#ffffff" /><path
         id="white-dots"
         class="white"
         d="m 81.7,108.7 c 0,5.3 -0.3,10.4 -0.8,15.4 -0.2,0 -0.4,0.1 -0.6,0.1 -5.3,0.6 -10.6,0.8 -16.1,0.8 -5.3,0 -10.4,-0.3 -15.4,-0.8 0,-0.1 -0.1,-0.2 -0.1,-0.4 -0.6,-5.1 -0.8,-10.3 -0.8,-15.7 0,-5.5 0.3,-10.8 0.8,-16 5.3,-0.5 10.7,-0.8 16.2,-0.9 5.4,0 10.6,0.3 15.8,0.8 0,0.2 0.1,0.4 0.1,0.6 0.6,5.3 0.9,10.6 0.9,16.1 m 42.1,42.2 c 0,-5.5 -0.3,-10.8 -0.8,-16 0,-0.2 0,-0.4 -0.1,-0.6 -5.2,-0.5 -10.4,-0.8 -15.8,-0.8 -5.5,0.1 -11,0.4 -16.2,0.9 -0.6,5.2 -0.8,10.5 -0.8,16 0,5.3 0.3,10.5 0.8,15.7 0,0.1 0,0.3 0.1,0.4 5,0.5 10.1,0.8 15.4,0.8 5.5,0 10.8,-0.3 16.1,-0.8 0.2,0 0.4,0 0.6,-0.1 0.4,-5.2 0.7,-10.3 0.7,-15.5 M 81.6,66.5 c 0,-5.3 -0.6,-10.4 -1.7,-15.2 0,-0.2 -0.1,-0.4 -0.1,-0.5 -4.7,-1 -9.7,-1.5 -14.9,-1.5 -5.4,0.1 -10.5,0.6 -15.5,1.7 -1.1,4.8 -1.6,9.9 -1.6,15.2 0,5.2 0.5,10.1 1.6,14.9 0,0.1 0.1,0.2 0.1,0.4 4.7,1 9.5,1.5 14.7,1.5 5.3,0 10.4,-0.6 15.2,-1.7 0.2,0 0.3,-0.1 0.5,-0.1 1.2,-4.8 1.7,-9.7 1.7,-14.7 m 84.4,84.2 c 0,-5.3 -0.6,-10.4 -1.7,-15.2 0,-0.2 -0.1,-0.4 -0.1,-0.5 -4.7,-1 -9.7,-1.5 -14.9,-1.5 -5.4,0.1 -10.5,0.6 -15.5,1.7 -1.1,4.8 -1.6,9.9 -1.6,15.2 0,5.2 0.5,10.1 1.6,14.9 0,0.1 0.1,0.2 0.1,0.4 4.7,1 9.5,1.5 14.7,1.5 5.3,0 10.4,-0.6 15.2,-1.7 0.2,0 0.4,-0.1 0.5,-0.1 1.1,-4.7 1.6,-9.6 1.7,-14.7 M 81.7,24.2 C 81.7,19.1 80.9,14.3 79.2,9.8 79.2,9.6 79.1,9.5 79,9.3 74.6,7.8 69.9,7 64.9,7 c -5.2,0.1 -10,0.9 -14.5,2.5 -1.6,4.5 -2.5,9.2 -2.5,14.3 0,5 0.8,9.8 2.5,14.1 0,0.1 0.1,0.2 0.2,0.4 4.3,1.5 8.9,2.3 13.9,2.3 5.2,0 10,-0.8 14.5,-2.5 0.1,-0.1 0.3,-0.1 0.5,-0.2 1.4,-4.1 2.1,-8.8 2.2,-13.7 m 42.1,42.2 c 0,-5.1 -0.8,-9.9 -2.5,-14.4 0,-0.2 -0.1,-0.3 -0.2,-0.5 -4.3,-1.5 -9,-2.3 -14.1,-2.3 -5.2,0.1 -10,0.9 -14.5,2.5 -1.6,4.5 -2.5,9.2 -2.5,14.4 0,5 0.8,9.8 2.5,14.1 0,0.1 0.1,0.2 0.2,0.4 4.3,1.5 8.9,2.3 13.9,2.3 5.2,0 10,-0.8 14.5,-2.5 0.1,-0.1 0.3,-0.1 0.5,-0.2 1.4,-4.3 2.2,-8.9 2.2,-13.8 m 42.2,42.1 c 0,-5.1 -0.8,-9.9 -2.5,-14.4 0,-0.2 -0.1,-0.3 -0.2,-0.5 -4.3,-1.5 -9,-2.3 -14.1,-2.3 -5.2,0.1 -10,0.9 -14.5,2.5 -1.6,4.5 -2.5,9.2 -2.5,14.4 0,5 0.8,9.8 2.5,14.1 0,0.1 0.1,0.2 0.2,0.4 4.3,1.5 8.9,2.3 13.9,2.3 5.1,0 10,-0.8 14.5,-2.5 0.1,-0.1 0.3,-0.1 0.5,-0.2 1.4,-4.3 2.1,-8.9 2.2,-13.8 m 42.1,42.1 c 0,-5.1 -0.8,-9.9 -2.5,-14.4 0,-0.2 -0.1,-0.3 -0.2,-0.5 -4.3,-1.5 -9,-2.3 -14.1,-2.3 -5.2,0.1 -10,0.9 -14.5,2.5 -1.6,4.5 -2.5,9.2 -2.5,14.4 0,5 0.8,9.8 2.5,14.1 0,0.1 0.1,0.2 0.2,0.4 4.3,1.5 8.9,2.3 13.9,2.3 5.2,0 10,-0.8 14.5,-2.5 0.1,-0.1 0.3,-0.1 0.5,-0.2 1.4,-4.2 2.2,-8.8 2.2,-13.8 M 123.8,24.1 c 0,-4.9 -1.1,-9.4 -3.3,-13.5 -0.1,-0.1 -0.1,-0.3 -0.2,-0.4 -4,-2.1 -8.5,-3.1 -13.3,-3.1 -5,0 -9.5,1.1 -13.6,3.3 -2.2,4.1 -3.3,8.6 -3.3,13.5 0,4.9 1.1,9.4 3.3,13.5 0.1,0.1 0.1,0.2 0.2,0.3 4,2.1 8.4,3.1 13.2,3.1 4.9,0 9.5,-1.1 13.6,-3.3 0.1,-0.1 0.3,-0.1 0.4,-0.2 1.9,-4 3,-8.4 3,-13.2 m 84.3,84.2 c 0,-4.9 -1.1,-9.4 -3.3,-13.5 -0.1,-0.1 -0.1,-0.3 -0.2,-0.4 -4,-2.1 -8.5,-3.1 -13.3,-3.1 -5,0 -9.5,1.1 -13.6,3.3 -2.2,4.1 -3.3,8.6 -3.3,13.5 0,4.9 1,9.4 3.3,13.5 0.1,0.1 0.1,0.2 0.2,0.3 4,2.1 8.4,3.1 13.2,3.1 4.9,0 9.5,-1.1 13.6,-3.3 0.1,-0.1 0.3,-0.1 0.4,-0.2 1.9,-3.9 3,-8.3 3,-13.2 M 166,23.9 c 0,-4.8 -1.4,-9 -4.2,-12.8 -0.1,-0.1 -0.2,-0.2 -0.3,-0.4 -3.6,-2.6 -7.7,-3.8 -12.4,-3.8 -4.9,0 -9.1,1.4 -12.8,4.1 -2.7,3.7 -4.1,8 -4.1,12.7 0,4.8 1.3,9 4,12.7 0.1,0.1 0.2,0.2 0.3,0.4 3.6,2.6 7.8,3.8 12.5,3.8 4.8,0 9,-1.3 12.7,-4.1 0.1,-0.1 0.2,-0.2 0.4,-0.3 2.5,-3.4 3.8,-7.6 3.9,-12.3 m 42.1,42.2 c 0,-4.8 -1.4,-9 -4.2,-12.8 -0.1,-0.1 -0.2,-0.2 -0.3,-0.4 -3.6,-2.6 -7.7,-3.8 -12.4,-3.8 -4.9,0 -9.1,1.4 -12.8,4.1 -2.7,3.7 -4.1,8 -4.1,12.7 0,4.8 1.3,9 4,12.7 0.1,0.1 0.2,0.2 0.3,0.4 3.6,2.6 7.8,3.8 12.5,3.8 4.8,0 9,-1.3 12.7,-4.1 0.1,-0.1 0.2,-0.2 0.4,-0.3 2.5,-3.5 3.8,-7.6 3.9,-12.3"
         inkscape:connector-curvature="0"
         style="fill:#ffffff" /><path
         id="blue-dots"
         class="st2"
         d="m 208.1,23.9 c 0,9.3 -7.5,16.9 -16.9,16.9 -9.3,0 -16.9,-7.5 -16.9,-16.9 0,-9.3 7.5,-16.9 16.9,-16.9 9.3,0 16.9,7.5 16.9,16.9 M 166,66.2 c 0,-4.9 -1.1,-9.4 -3.3,-13.5 -0.1,-0.1 -0.1,-0.3 -0.2,-0.4 -4,-2.1 -8.5,-3.1 -13.3,-3.1 -5,0 -9.6,1.1 -13.6,3.3 -2.2,4.1 -3.3,8.6 -3.3,13.5 0,4.9 1.1,9.4 3.3,13.5 0.1,0.1 0.1,0.2 0.2,0.3 4,2.1 8.4,3.1 13.2,3.1 4.9,0 9.5,-1.1 13.6,-3.3 0.1,-0.1 0.3,-0.1 0.4,-0.2 1.9,-4 2.9,-8.4 3,-13.2 m -42.2,42.4 c 0,-5.3 -0.6,-10.4 -1.7,-15.2 0,-0.2 -0.1,-0.4 -0.1,-0.5 -4.7,-1 -9.7,-1.5 -14.9,-1.5 -5.4,0.1 -10.5,0.6 -15.5,1.7 -1.1,4.8 -1.6,9.9 -1.6,15.2 0,5.2 0.5,10.1 1.6,14.9 0,0.1 0.1,0.2 0.1,0.4 4.7,1 9.6,1.5 14.7,1.5 5.3,0 10.4,-0.6 15.2,-1.7 0.2,0 0.4,-0.1 0.5,-0.1 1.1,-4.8 1.7,-9.6 1.7,-14.7 m -42.2,41.7 v -8.4 -8.4 H 73.2 64.8 47.9 v 8.4 8.4 16.9 h 16.9 8.4 8.4 z"
         inkscape:connector-curvature="0"
         style="fill:#2bace2" /></g></g></svg>